<svg width="640" height="480" viewBox="0 0 640 480" fill="none" xmlns="http://www.w3.org/2000/svg">
  <rect width="640" height="480" rx="48" fill="#FFF7ED"/>
  <circle cx="487" cy="121" r="72" fill="#FDE68A"/>
  <circle cx="143" cy="358" r="56" fill="#FED7AA"/>
  <ellipse cx="320" cy="272" rx="168" ry="96" fill="#EA580C"/>
  <ellipse cx="320" cy="255" rx="188" ry="106" fill="#FB923C"/>
  <ellipse cx="320" cy="241" rx="206" ry="112" fill="#FFEDD5"/>
  <path d="M187 244C202 212 230 193 263 193C285 193 305 203 320 220C335 203 355 193 377 193C410 193 438 212 453 244" stroke="#FB923C" stroke-width="18" stroke-linecap="round"/>
  <path d="M215 262C233 235 262 219 295 219C316 219 335 226 350 239C363 226 382 219 403 219C436 219 465 235 483 262" stroke="#FDBA74" stroke-width="16" stroke-linecap="round"/>
  <circle cx="252" cy="238" r="22" fill="#F97316"/>
  <circle cx="386" cy="249" r="18" fill="#FB923C"/>
  <circle cx="340" cy="281" r="20" fill="#FDBA74"/>
  <path d="M208 318H432C421 366 379 400 320 400C261 400 219 366 208 318Z" fill="#7C2D12"/>
  <path d="M173 311H467" stroke="#431407" stroke-width="16" stroke-linecap="round"/>
  <path d="M244 122C244 100 261 83 283 83" stroke="#FB923C" stroke-width="12" stroke-linecap="round"/>
  <path d="M320 102C320 76 340 56 366 56" stroke="#FDBA74" stroke-width="12" stroke-linecap="round"/>
  <path d="M394 126C394 108 408 94 426 94" stroke="#F97316" stroke-width="12" stroke-linecap="round"/>
</svg>
